<mxfile host="app.diagrams.net" agent="Mozilla/5.0 (Macintosh; Intel Mac OS X 10_15_7) AppleWebKit/537.36 (KHTML, like Gecko) Chrome/129.0.0.0 Safari/537.36" version="24.8.0">
  <diagram name="第 1 页" id="x1a2OVwLC4DQB-1H0HeX">
    <mxGraphModel dx="1853" dy="1819" grid="1" gridSize="10" guides="1" tooltips="1" connect="1" arrows="1" fold="1" page="1" pageScale="1" pageWidth="827" pageHeight="1169" math="0" shadow="0">
      <root>
        <mxCell id="0" />
        <mxCell id="1" parent="0" />
        <mxCell id="-SsP1CFAZnbRiIt0Rbaj-4" value="odps表" style="shape=cube;whiteSpace=wrap;html=1;boundedLbl=1;backgroundOutline=1;darkOpacity=0.05;darkOpacity2=0.1;" vertex="1" parent="1">
          <mxGeometry x="70" y="90" width="90" height="60" as="geometry" />
        </mxCell>
        <mxCell id="-SsP1CFAZnbRiIt0Rbaj-8" style="edgeStyle=orthogonalEdgeStyle;rounded=0;orthogonalLoop=1;jettySize=auto;html=1;" edge="1" parent="1" source="-SsP1CFAZnbRiIt0Rbaj-5" target="-SsP1CFAZnbRiIt0Rbaj-6">
          <mxGeometry relative="1" as="geometry">
            <Array as="points">
              <mxPoint x="490" y="210" />
            </Array>
          </mxGeometry>
        </mxCell>
        <mxCell id="-SsP1CFAZnbRiIt0Rbaj-50" style="edgeStyle=orthogonalEdgeStyle;rounded=0;orthogonalLoop=1;jettySize=auto;html=1;" edge="1" parent="1" source="-SsP1CFAZnbRiIt0Rbaj-5" target="-SsP1CFAZnbRiIt0Rbaj-47">
          <mxGeometry relative="1" as="geometry" />
        </mxCell>
        <mxCell id="-SsP1CFAZnbRiIt0Rbaj-5" value="实体" style="shape=cylinder3;whiteSpace=wrap;html=1;boundedLbl=1;backgroundOutline=1;size=15;" vertex="1" parent="1">
          <mxGeometry x="460" y="260" width="60" height="80" as="geometry" />
        </mxCell>
        <mxCell id="-SsP1CFAZnbRiIt0Rbaj-16" style="edgeStyle=orthogonalEdgeStyle;rounded=0;orthogonalLoop=1;jettySize=auto;html=1;" edge="1" parent="1" target="-SsP1CFAZnbRiIt0Rbaj-11">
          <mxGeometry relative="1" as="geometry">
            <mxPoint x="290" y="100" as="sourcePoint" />
            <Array as="points">
              <mxPoint x="420" y="100" />
              <mxPoint x="420" y="-10" />
            </Array>
          </mxGeometry>
        </mxCell>
        <mxCell id="-SsP1CFAZnbRiIt0Rbaj-48" style="edgeStyle=orthogonalEdgeStyle;rounded=0;orthogonalLoop=1;jettySize=auto;html=1;" edge="1" parent="1" source="-SsP1CFAZnbRiIt0Rbaj-6" target="-SsP1CFAZnbRiIt0Rbaj-47">
          <mxGeometry relative="1" as="geometry" />
        </mxCell>
        <mxCell id="-SsP1CFAZnbRiIt0Rbaj-6" value="元数据表" style="shape=cylinder3;whiteSpace=wrap;html=1;boundedLbl=1;backgroundOutline=1;size=15;" vertex="1" parent="1">
          <mxGeometry x="260" y="170" width="60" height="80" as="geometry" />
        </mxCell>
        <mxCell id="-SsP1CFAZnbRiIt0Rbaj-7" value="" style="curved=1;endArrow=classic;html=1;rounded=0;exitX=0.689;exitY=0.983;exitDx=0;exitDy=0;exitPerimeter=0;" edge="1" parent="1" source="-SsP1CFAZnbRiIt0Rbaj-4" target="-SsP1CFAZnbRiIt0Rbaj-6">
          <mxGeometry width="50" height="50" relative="1" as="geometry">
            <mxPoint x="180" y="200" as="sourcePoint" />
            <mxPoint x="230" y="150" as="targetPoint" />
            <Array as="points">
              <mxPoint x="130" y="240" />
            </Array>
          </mxGeometry>
        </mxCell>
        <mxCell id="-SsP1CFAZnbRiIt0Rbaj-9" value="元数据字典表" style="shape=cylinder3;whiteSpace=wrap;html=1;boundedLbl=1;backgroundOutline=1;size=15;" vertex="1" parent="1">
          <mxGeometry x="570" y="130" width="60" height="80" as="geometry" />
        </mxCell>
        <mxCell id="-SsP1CFAZnbRiIt0Rbaj-10" value="" style="endArrow=none;dashed=1;html=1;dashPattern=1 3;strokeWidth=2;rounded=0;entryX=0;entryY=0.5;entryDx=0;entryDy=0;entryPerimeter=0;" edge="1" parent="1" source="-SsP1CFAZnbRiIt0Rbaj-6" target="-SsP1CFAZnbRiIt0Rbaj-9">
          <mxGeometry width="50" height="50" relative="1" as="geometry">
            <mxPoint x="290" y="125" as="sourcePoint" />
            <mxPoint x="350" y="20" as="targetPoint" />
          </mxGeometry>
        </mxCell>
        <mxCell id="-SsP1CFAZnbRiIt0Rbaj-11" value="元数据字段关联表" style="shape=cylinder3;whiteSpace=wrap;html=1;boundedLbl=1;backgroundOutline=1;size=15;" vertex="1" parent="1">
          <mxGeometry x="450" y="-50" width="80" height="80" as="geometry" />
        </mxCell>
        <mxCell id="-SsP1CFAZnbRiIt0Rbaj-14" value="两张表关联生成关联表数据" style="text;html=1;align=center;verticalAlign=middle;whiteSpace=wrap;rounded=0;" vertex="1" parent="1">
          <mxGeometry x="354" y="30" width="60" height="30" as="geometry" />
        </mxCell>
        <mxCell id="-SsP1CFAZnbRiIt0Rbaj-17" style="edgeStyle=orthogonalEdgeStyle;rounded=0;orthogonalLoop=1;jettySize=auto;html=1;entryX=0;entryY=0.5;entryDx=0;entryDy=0;entryPerimeter=0;exitX=0.5;exitY=0;exitDx=0;exitDy=0;exitPerimeter=0;" edge="1" parent="1" source="-SsP1CFAZnbRiIt0Rbaj-6" target="-SsP1CFAZnbRiIt0Rbaj-11">
          <mxGeometry relative="1" as="geometry">
            <mxPoint x="290" y="100" as="sourcePoint" />
            <Array as="points">
              <mxPoint x="290" y="100" />
              <mxPoint x="340" y="100" />
              <mxPoint x="340" y="-10" />
            </Array>
          </mxGeometry>
        </mxCell>
        <mxCell id="-SsP1CFAZnbRiIt0Rbaj-18" value="" style="curved=1;endArrow=classic;html=1;rounded=0;" edge="1" parent="1" source="-SsP1CFAZnbRiIt0Rbaj-11" target="-SsP1CFAZnbRiIt0Rbaj-6">
          <mxGeometry width="50" height="50" relative="1" as="geometry">
            <mxPoint x="510" y="80" as="sourcePoint" />
            <mxPoint x="290" y="105.80645161290317" as="targetPoint" />
            <Array as="points">
              <mxPoint x="670" y="-10" />
              <mxPoint x="570" y="160" />
            </Array>
          </mxGeometry>
        </mxCell>
        <mxCell id="-SsP1CFAZnbRiIt0Rbaj-19" value="关联后要把元数据表中的&lt;div&gt;维度属性表实体修改&lt;/div&gt;" style="edgeLabel;html=1;align=center;verticalAlign=middle;resizable=0;points=[];" vertex="1" connectable="0" parent="-SsP1CFAZnbRiIt0Rbaj-18">
          <mxGeometry x="-0.2499" y="-3" relative="1" as="geometry">
            <mxPoint as="offset" />
          </mxGeometry>
        </mxCell>
        <mxCell id="-SsP1CFAZnbRiIt0Rbaj-29" value="" style="edgeStyle=orthogonalEdgeStyle;rounded=0;orthogonalLoop=1;jettySize=auto;html=1;" edge="1" parent="1" source="-SsP1CFAZnbRiIt0Rbaj-20" target="-SsP1CFAZnbRiIt0Rbaj-28">
          <mxGeometry relative="1" as="geometry" />
        </mxCell>
        <mxCell id="-SsP1CFAZnbRiIt0Rbaj-33" value="" style="edgeStyle=orthogonalEdgeStyle;rounded=0;orthogonalLoop=1;jettySize=auto;html=1;" edge="1" parent="1" source="-SsP1CFAZnbRiIt0Rbaj-20" target="-SsP1CFAZnbRiIt0Rbaj-32">
          <mxGeometry relative="1" as="geometry" />
        </mxCell>
        <mxCell id="-SsP1CFAZnbRiIt0Rbaj-20" value="标签" style="shape=cylinder3;whiteSpace=wrap;html=1;boundedLbl=1;backgroundOutline=1;size=15;" vertex="1" parent="1">
          <mxGeometry x="210" y="585" width="60" height="80" as="geometry" />
        </mxCell>
        <mxCell id="-SsP1CFAZnbRiIt0Rbaj-25" value="标签规则" style="shape=cylinder3;whiteSpace=wrap;html=1;boundedLbl=1;backgroundOutline=1;size=15;" vertex="1" parent="1">
          <mxGeometry x="-10" y="585" width="60" height="80" as="geometry" />
        </mxCell>
        <mxCell id="-SsP1CFAZnbRiIt0Rbaj-30" value="" style="edgeStyle=orthogonalEdgeStyle;rounded=0;orthogonalLoop=1;jettySize=auto;html=1;" edge="1" parent="1" source="-SsP1CFAZnbRiIt0Rbaj-28" target="-SsP1CFAZnbRiIt0Rbaj-25">
          <mxGeometry relative="1" as="geometry" />
        </mxCell>
        <mxCell id="-SsP1CFAZnbRiIt0Rbaj-28" value="通过规则生成" style="rhombus;whiteSpace=wrap;html=1;" vertex="1" parent="1">
          <mxGeometry x="90" y="585" width="80" height="80" as="geometry" />
        </mxCell>
        <mxCell id="-SsP1CFAZnbRiIt0Rbaj-31" value="标签审批表" style="shape=cylinder3;whiteSpace=wrap;html=1;boundedLbl=1;backgroundOutline=1;size=15;" vertex="1" parent="1">
          <mxGeometry x="440" y="585" width="60" height="80" as="geometry" />
        </mxCell>
        <mxCell id="-SsP1CFAZnbRiIt0Rbaj-34" value="" style="edgeStyle=orthogonalEdgeStyle;rounded=0;orthogonalLoop=1;jettySize=auto;html=1;" edge="1" parent="1" source="-SsP1CFAZnbRiIt0Rbaj-32" target="-SsP1CFAZnbRiIt0Rbaj-31">
          <mxGeometry relative="1" as="geometry" />
        </mxCell>
        <mxCell id="-SsP1CFAZnbRiIt0Rbaj-32" value="导入或者&lt;div&gt;规则申请上线&lt;/div&gt;" style="rhombus;whiteSpace=wrap;html=1;" vertex="1" parent="1">
          <mxGeometry x="310" y="585" width="90" height="80" as="geometry" />
        </mxCell>
        <mxCell id="-SsP1CFAZnbRiIt0Rbaj-36" value="" style="curved=1;endArrow=classic;html=1;rounded=0;exitX=0.633;exitY=0.975;exitDx=0;exitDy=0;exitPerimeter=0;" edge="1" parent="1" source="-SsP1CFAZnbRiIt0Rbaj-31" target="-SsP1CFAZnbRiIt0Rbaj-25">
          <mxGeometry width="50" height="50" relative="1" as="geometry">
            <mxPoint x="520" y="705" as="sourcePoint" />
            <mxPoint x="570" y="655" as="targetPoint" />
            <Array as="points">
              <mxPoint x="570" y="705" />
              <mxPoint x="430" y="755" />
              <mxPoint x="240" y="705" />
            </Array>
          </mxGeometry>
        </mxCell>
        <mxCell id="-SsP1CFAZnbRiIt0Rbaj-37" value="审批结束返回修改" style="edgeLabel;html=1;align=center;verticalAlign=middle;resizable=0;points=[];" vertex="1" connectable="0" parent="-SsP1CFAZnbRiIt0Rbaj-36">
          <mxGeometry x="0.056" y="-17" relative="1" as="geometry">
            <mxPoint as="offset" />
          </mxGeometry>
        </mxCell>
        <mxCell id="-SsP1CFAZnbRiIt0Rbaj-38" value="" style="curved=1;endArrow=classic;html=1;rounded=0;entryX=0.145;entryY=1;entryDx=0;entryDy=-4.35;entryPerimeter=0;" edge="1" parent="1" source="-SsP1CFAZnbRiIt0Rbaj-31" target="-SsP1CFAZnbRiIt0Rbaj-20">
          <mxGeometry width="50" height="50" relative="1" as="geometry">
            <mxPoint x="450" y="645" as="sourcePoint" />
            <mxPoint x="480" y="655" as="targetPoint" />
            <Array as="points">
              <mxPoint x="480" y="705" />
              <mxPoint x="300" y="735" />
            </Array>
          </mxGeometry>
        </mxCell>
        <mxCell id="-SsP1CFAZnbRiIt0Rbaj-39" value="标签分类" style="shape=cylinder3;whiteSpace=wrap;html=1;boundedLbl=1;backgroundOutline=1;size=15;" vertex="1" parent="1">
          <mxGeometry x="90" y="260" width="60" height="80" as="geometry" />
        </mxCell>
        <mxCell id="-SsP1CFAZnbRiIt0Rbaj-41" value="标签更新表" style="shape=cylinder3;whiteSpace=wrap;html=1;boundedLbl=1;backgroundOutline=1;size=15;" vertex="1" parent="1">
          <mxGeometry x="710" y="585" width="70" height="80" as="geometry" />
        </mxCell>
        <mxCell id="-SsP1CFAZnbRiIt0Rbaj-42" style="edgeStyle=orthogonalEdgeStyle;rounded=0;orthogonalLoop=1;jettySize=auto;html=1;" edge="1" parent="1" source="-SsP1CFAZnbRiIt0Rbaj-31" target="-SsP1CFAZnbRiIt0Rbaj-41">
          <mxGeometry relative="1" as="geometry" />
        </mxCell>
        <mxCell id="-SsP1CFAZnbRiIt0Rbaj-43" value="审批通过" style="edgeLabel;html=1;align=center;verticalAlign=middle;resizable=0;points=[];" vertex="1" connectable="0" parent="-SsP1CFAZnbRiIt0Rbaj-42">
          <mxGeometry x="0.4286" y="1" relative="1" as="geometry">
            <mxPoint x="-40" y="1" as="offset" />
          </mxGeometry>
        </mxCell>
        <mxCell id="-SsP1CFAZnbRiIt0Rbaj-53" style="edgeStyle=orthogonalEdgeStyle;rounded=0;orthogonalLoop=1;jettySize=auto;html=1;" edge="1" parent="1" source="-SsP1CFAZnbRiIt0Rbaj-47" target="-SsP1CFAZnbRiIt0Rbaj-52">
          <mxGeometry relative="1" as="geometry" />
        </mxCell>
        <mxCell id="-SsP1CFAZnbRiIt0Rbaj-55" value="提交任务" style="edgeLabel;html=1;align=center;verticalAlign=middle;resizable=0;points=[];" vertex="1" connectable="0" parent="-SsP1CFAZnbRiIt0Rbaj-53">
          <mxGeometry x="-0.2483" y="2" relative="1" as="geometry">
            <mxPoint as="offset" />
          </mxGeometry>
        </mxCell>
        <mxCell id="-SsP1CFAZnbRiIt0Rbaj-58" value="校验通过" style="edgeStyle=orthogonalEdgeStyle;rounded=0;orthogonalLoop=1;jettySize=auto;html=1;" edge="1" parent="1" source="-SsP1CFAZnbRiIt0Rbaj-47" target="-SsP1CFAZnbRiIt0Rbaj-20">
          <mxGeometry relative="1" as="geometry" />
        </mxCell>
        <mxCell id="-SsP1CFAZnbRiIt0Rbaj-47" value="标签校验记录表" style="shape=cylinder3;whiteSpace=wrap;html=1;boundedLbl=1;backgroundOutline=1;size=15;" vertex="1" parent="1">
          <mxGeometry x="260" y="370" width="60" height="80" as="geometry" />
        </mxCell>
        <mxCell id="-SsP1CFAZnbRiIt0Rbaj-49" style="edgeStyle=orthogonalEdgeStyle;rounded=0;orthogonalLoop=1;jettySize=auto;html=1;entryX=0.5;entryY=0;entryDx=0;entryDy=0;entryPerimeter=0;" edge="1" parent="1" source="-SsP1CFAZnbRiIt0Rbaj-39" target="-SsP1CFAZnbRiIt0Rbaj-47">
          <mxGeometry relative="1" as="geometry" />
        </mxCell>
        <mxCell id="-SsP1CFAZnbRiIt0Rbaj-51" value="sql创建" style="edgeLabel;html=1;align=center;verticalAlign=middle;resizable=0;points=[];" vertex="1" connectable="0" parent="-SsP1CFAZnbRiIt0Rbaj-49">
          <mxGeometry x="0.6571" relative="1" as="geometry">
            <mxPoint as="offset" />
          </mxGeometry>
        </mxCell>
        <mxCell id="-SsP1CFAZnbRiIt0Rbaj-52" value="datawroks任务" style="shape=cube;whiteSpace=wrap;html=1;boundedLbl=1;backgroundOutline=1;darkOpacity=0.05;darkOpacity2=0.1;" vertex="1" parent="1">
          <mxGeometry x="610" y="370" width="120" height="80" as="geometry" />
        </mxCell>
        <mxCell id="-SsP1CFAZnbRiIt0Rbaj-54" value="定时检查判断完成" style="rhombus;whiteSpace=wrap;html=1;" vertex="1" parent="1">
          <mxGeometry x="450" y="470" width="120" height="80" as="geometry" />
        </mxCell>
        <mxCell id="-SsP1CFAZnbRiIt0Rbaj-57" value="写回" style="endArrow=none;dashed=1;html=1;dashPattern=1 3;strokeWidth=2;rounded=0;entryX=0;entryY=0;entryDx=0;entryDy=0;exitX=1;exitY=1;exitDx=0;exitDy=-15;exitPerimeter=0;" edge="1" parent="1" source="-SsP1CFAZnbRiIt0Rbaj-47" target="-SsP1CFAZnbRiIt0Rbaj-54">
          <mxGeometry width="50" height="50" relative="1" as="geometry">
            <mxPoint x="500" y="510" as="sourcePoint" />
            <mxPoint x="550" y="460" as="targetPoint" />
          </mxGeometry>
        </mxCell>
        <mxCell id="-SsP1CFAZnbRiIt0Rbaj-59" style="edgeStyle=orthogonalEdgeStyle;rounded=0;orthogonalLoop=1;jettySize=auto;html=1;entryX=0.483;entryY=0.975;entryDx=0;entryDy=0;entryPerimeter=0;" edge="1" parent="1" source="-SsP1CFAZnbRiIt0Rbaj-54" target="-SsP1CFAZnbRiIt0Rbaj-52">
          <mxGeometry relative="1" as="geometry" />
        </mxCell>
        <mxCell id="-SsP1CFAZnbRiIt0Rbaj-60" style="edgeStyle=orthogonalEdgeStyle;rounded=0;orthogonalLoop=1;jettySize=auto;html=1;" edge="1" parent="1" source="-SsP1CFAZnbRiIt0Rbaj-41" target="-SsP1CFAZnbRiIt0Rbaj-52">
          <mxGeometry relative="1" as="geometry">
            <Array as="points">
              <mxPoint x="745" y="420" />
            </Array>
          </mxGeometry>
        </mxCell>
        <mxCell id="-SsP1CFAZnbRiIt0Rbaj-61" value="提交任务" style="edgeLabel;html=1;align=center;verticalAlign=middle;resizable=0;points=[];" vertex="1" connectable="0" parent="-SsP1CFAZnbRiIt0Rbaj-60">
          <mxGeometry x="-0.2778" y="-1" relative="1" as="geometry">
            <mxPoint as="offset" />
          </mxGeometry>
        </mxCell>
        <mxCell id="-SsP1CFAZnbRiIt0Rbaj-62" value="定时获取更新结果" style="rhombus;whiteSpace=wrap;html=1;" vertex="1" parent="1">
          <mxGeometry x="800" y="470" width="80" height="80" as="geometry" />
        </mxCell>
        <mxCell id="-SsP1CFAZnbRiIt0Rbaj-63" style="edgeStyle=orthogonalEdgeStyle;rounded=0;orthogonalLoop=1;jettySize=auto;html=1;entryX=0.992;entryY=0.513;entryDx=0;entryDy=0;entryPerimeter=0;" edge="1" parent="1" source="-SsP1CFAZnbRiIt0Rbaj-62" target="-SsP1CFAZnbRiIt0Rbaj-52">
          <mxGeometry relative="1" as="geometry">
            <Array as="points">
              <mxPoint x="840" y="410" />
              <mxPoint x="765" y="410" />
              <mxPoint x="765" y="411" />
            </Array>
          </mxGeometry>
        </mxCell>
        <mxCell id="-SsP1CFAZnbRiIt0Rbaj-65" value="" style="endArrow=none;dashed=1;html=1;dashPattern=1 3;strokeWidth=2;rounded=0;" edge="1" parent="1" source="-SsP1CFAZnbRiIt0Rbaj-41" target="-SsP1CFAZnbRiIt0Rbaj-62">
          <mxGeometry width="50" height="50" relative="1" as="geometry">
            <mxPoint x="820" y="600" as="sourcePoint" />
            <mxPoint x="870" y="550" as="targetPoint" />
          </mxGeometry>
        </mxCell>
        <mxCell id="-SsP1CFAZnbRiIt0Rbaj-66" value="写回" style="edgeLabel;html=1;align=center;verticalAlign=middle;resizable=0;points=[];" vertex="1" connectable="0" parent="-SsP1CFAZnbRiIt0Rbaj-65">
          <mxGeometry x="-0.1344" relative="1" as="geometry">
            <mxPoint as="offset" />
          </mxGeometry>
        </mxCell>
      </root>
    </mxGraphModel>
  </diagram>
</mxfile>
